<svg width="25" height="25" viewBox="0 0 25 25" fill="none" xmlns="http://www.w3.org/2000/svg">
<path d="M4.05928 13.6522H18.0821L19.7964 5.08081H2.65356C2.5282 5.08127 2.40446 5.10922 2.29107 5.1627C2.17769 5.21618 2.07741 5.29388 1.99731 5.39032C1.91722 5.48676 1.85925 5.5996 1.8275 5.72088C1.79575 5.84216 1.791 5.96892 1.81356 6.09224L3.21928 12.9494C3.25207 13.1476 3.35485 13.3276 3.50897 13.4565C3.66309 13.5855 3.85834 13.6549 4.05928 13.6522V13.6522Z" stroke="#A5A4AB" stroke-width="1.71429" stroke-linecap="round" stroke-linejoin="round"/>
<path d="M19.7964 5.08082L20.5164 2.33797C20.5559 2.14436 20.6611 1.97036 20.8142 1.8454C20.9672 1.72044 21.1588 1.65221 21.3564 1.65225H24.0821" stroke="#A5A4AB" stroke-width="1.71429" stroke-linecap="round" stroke-linejoin="round"/>
<path d="M18.082 13.6523L17.362 17.2523C17.3225 17.4459 17.2173 17.6199 17.0642 17.7448C16.9112 17.8698 16.7196 17.938 16.522 17.938H6.08203" stroke="#A5A4AB" stroke-width="1.71429" stroke-linecap="round" stroke-linejoin="round"/>
<path d="M6.93917 23.938C7.41256 23.938 7.79632 23.5542 7.79632 23.0808C7.79632 22.6074 7.41256 22.2237 6.93917 22.2237C6.46579 22.2237 6.08203 22.6074 6.08203 23.0808C6.08203 23.5542 6.46579 23.938 6.93917 23.938Z" stroke="#A5A4AB" stroke-width="1.71429" stroke-linecap="round" stroke-linejoin="round"/>
<path d="M15.5107 23.938C15.9841 23.938 16.3679 23.5542 16.3679 23.0808C16.3679 22.6074 15.9841 22.2237 15.5107 22.2237C15.0373 22.2237 14.6536 22.6074 14.6536 23.0808C14.6536 23.5542 15.0373 23.938 15.5107 23.938Z" stroke="#A5A4AB" stroke-width="1.71429" stroke-linecap="round" stroke-linejoin="round"/>
</svg>
